<?xml version="1.0" encoding="utf-8"?>
<svg xmlns="http://www.w3.org/2000/svg" viewBox="290.428 92.105 128 128" width="128px" height="128px">
  <rect width="128" height="128" fill="#f0f0f0" x="290.428" y="92.105" style="stroke-width: 1px;" id="object-0" transform="matrix(1, 0, 0, 1, 0, -2.842170943040401e-14)"/>
  <g id="object-1" transform="matrix(1, 0, 0, 1, 0, -2.842170943040401e-14)">
    <rect x="298.428" y="100.105" width="52" height="52" fill="#F5EC22" stroke="#8b8b88" stroke-width="1" style="stroke-width: 1px;"/>
    <rect x="358.428" y="100.105" width="52" height="52" fill="#00874D" stroke="#8b8b88" stroke-width="1" style="stroke-width: 1px;"/>
    <rect x="298.428" y="160.105" width="52" height="52" fill="#277BA6" stroke="#8b8b88" stroke-width="1" style="stroke-width: 1px;"/>
    <rect x="358.428" y="160.105" width="52" height="52" fill="#E85307" stroke="#8b8b88" stroke-width="1" style="stroke-width: 1px;"/>
  </g>
  <g fill="#36c" transform="matrix(4.381198883056641, 0, 0, 4.381198883056641, 288.70892333984375, 90.39148712158203)" style="">
    <path d="M20.437 2.69c-3.37 0-5.778 3.05-8.186 5.297.322 0 .804-.16 1.285-.16.803 0 1.605.16 2.408.48 1.284-1.283 2.568-2.727 4.494-2.727.963 0 2.087.48 2.89 1.123 1.605 1.605 1.605 4.174 0 5.78l-4.174 4.172c-.642.642-1.926 1.124-2.89 1.124-2.246 0-3.37-1.446-4.172-3.212l-2.086 2.087c1.284 2.408 3.21 4.173 6.1 4.173 1.926 0 3.69-.802 4.815-2.086l4.172-4.174c1.445-1.444 2.408-3.21 2.408-5.297-.32-3.53-3.53-6.58-7.063-6.58z" style="fill: rgb(62, 63, 67);"/>
    <path d="M13.535 22.113l-1.444 1.444c-.64.642-1.925 1.124-2.89 1.124-.962 0-2.085-.48-2.888-1.123-1.605-1.605-1.605-4.334 0-5.778l4.174-4.175c.642-.642 1.926-1.123 2.89-1.123 2.246 0 3.37 1.605 4.172 3.21l2.087-2.087c-1.284-2.407-3.21-4.173-6.1-4.173-1.926 0-3.692.803-4.815 2.087L4.547 15.69c-2.73 2.73-2.73 7.063 0 9.63 2.568 2.57 7.062 2.73 9.47 0l3.05-3.05c-.482.162-.963.162-1.445.162-.803 0-1.445 0-2.087-.32z" style="fill: rgb(62, 63, 67);"/>
  </g>
</svg>